<?xml version="1.0" encoding="UTF-8"?>
<svg xmlns="http://www.w3.org/2000/svg" width="1200" height="1200" viewBox="-236.0 -236.0 472.0 472.0" role="img" aria-label="Luminuskompassen med åtta arketyper" class="cmpsvg tight" data-level="arch" data-fs="14.0"><defs><path id="np" d="M0 -9 C-5 -18 -22 -27 -22 -43 A22 22 0 0 1 22 -43 C22 -27 5 -18 0 -9Z" transform="translate(0 -3)"/></defs><rect x="-236.0" y="-236.0" width="472.0" height="472.0" fill="#FBFAFF"/><g class="pieces"><g class="pc"><path class="sh" d="M-7.7 -23.1L-87.2 -215.0A232.0 232.0 0 0 1 87.2 -215.0L7.7 -23.1A24.4 24.4 0 0 0 -7.7 -23.1Z" fill="#A970FF"/><text class="nm" x="0.0" y="-158.4" text-anchor="middle" font-family="DM Sans,Arial,sans-serif" font-size="14.0" font-weight="700" fill="#14121F" style="fill:#14121F">Explorer</text><circle class="md" cx="0.0" cy="-139.8" r="13.6" fill="#14121F" stroke="#FFFFFF" stroke-width="1.4"/><text class="rkn" x="0.0" y="-132.9" text-anchor="middle" font-family="DM Sans,Arial,sans-serif" font-size="18.9" font-weight="800" fill="#FFFFFF" style="font-variant-numeric:tabular-nums;fill:#FFFFFF">8</text></g><g class="pc"><path class="sh" d="M10.9 -21.8L90.4 -213.7A232.0 232.0 0 0 1 213.7 -90.4L21.8 -10.9A24.4 24.4 0 0 0 10.9 -21.8Z" fill="#D7263D"/><text class="nm" x="104.7" y="-115.0" text-anchor="middle" font-family="DM Sans,Arial,sans-serif" font-size="14.0" font-weight="700" fill="#FFFFFF" style="fill:#FFFFFF">Challenger</text><text class="rkn" x="104.7" y="-89.6" text-anchor="middle" font-family="DM Sans,Arial,sans-serif" font-size="18.9" font-weight="800" fill="#FFFFFF" style="font-variant-numeric:tabular-nums;fill:#FFFFFF">3</text></g><g class="pc"><path class="sh" d="M23.1 -7.7L215.0 -87.2A232.0 232.0 0 0 1 215.0 87.2L23.1 7.7A24.4 24.4 0 0 0 23.1 -7.7Z" fill="#8A1C2B"/><text class="nm" x="148.0" y="-10.4" text-anchor="middle" font-family="DM Sans,Arial,sans-serif" font-size="14.0" font-weight="700" fill="#FFFFFF" style="fill:#FFFFFF">Producer</text><circle class="chr" cx="148.0" cy="8.2" r="16.6" fill="none" stroke="#FFFFFF" stroke-width="1.7" stroke-opacity=".95"/><circle class="md" cx="148.0" cy="8.2" r="13.6" fill="#FFFFFF" stroke="#14121F" stroke-width="1.3"/><text class="rkn" x="148.0" y="15.1" text-anchor="middle" font-family="DM Sans,Arial,sans-serif" font-size="18.9" font-weight="800" fill="#14121F" style="font-variant-numeric:tabular-nums;fill:#14121F">1</text></g><g class="pc"><path class="sh" d="M21.8 10.9L213.7 90.4A232.0 232.0 0 0 1 90.4 213.7L10.9 21.8A24.4 24.4 0 0 0 21.8 10.9Z" fill="#A07F0C"/><text class="nm" x="104.7" y="94.3" text-anchor="middle" font-family="DM Sans,Arial,sans-serif" font-size="14.0" font-weight="700" fill="#14121F" style="fill:#14121F">Investor</text><text class="rkn" x="104.7" y="119.7" text-anchor="middle" font-family="DM Sans,Arial,sans-serif" font-size="18.9" font-weight="800" fill="#14121F" style="font-variant-numeric:tabular-nums;fill:#14121F">4</text></g><g class="pc"><path class="sh" d="M7.7 23.1L87.2 215.0A232.0 232.0 0 0 1 -87.2 215.0L-7.7 23.1A24.4 24.4 0 0 0 7.7 23.1Z" fill="#0B6B3A"/><text class="nm" x="0.0" y="137.6" text-anchor="middle" font-family="DM Sans,Arial,sans-serif" font-size="14.0" font-weight="700" fill="#FFFFFF" style="fill:#FFFFFF">Protector</text><text class="rkn" x="0.0" y="163.1" text-anchor="middle" font-family="DM Sans,Arial,sans-serif" font-size="18.9" font-weight="800" fill="#FFFFFF" style="font-variant-numeric:tabular-nums;fill:#FFFFFF">7</text></g><g class="pc"><path class="sh" d="M-10.9 21.8L-90.4 213.7A232.0 232.0 0 0 1 -213.7 90.4L-21.8 10.9A24.4 24.4 0 0 0 -10.9 21.8Z" fill="#52C28A"/><text class="nm" x="-104.7" y="94.3" text-anchor="middle" font-family="DM Sans,Arial,sans-serif" font-size="14.0" font-weight="700" fill="#14121F" style="fill:#14121F">Connector</text><circle class="md" cx="-104.7" cy="112.9" r="13.6" fill="#FFFFFF" stroke="#14121F" stroke-width="1.3"/><text class="rkn" x="-104.7" y="119.7" text-anchor="middle" font-family="DM Sans,Arial,sans-serif" font-size="18.9" font-weight="800" fill="#14121F" style="font-variant-numeric:tabular-nums;fill:#14121F">2</text></g><g class="pc"><path class="sh" d="M-23.1 7.7L-215.0 87.2A232.0 232.0 0 0 1 -215.0 -87.2L-23.1 -7.7A24.4 24.4 0 0 0 -23.1 7.7Z" fill="#0E8A9B"/><text class="nm" x="-148.0" y="-10.4" text-anchor="middle" font-family="DM Sans,Arial,sans-serif" font-size="14.0" font-weight="700" fill="#14121F" style="fill:#14121F">Reflector</text><text class="rkn" x="-148.0" y="15.1" text-anchor="middle" font-family="DM Sans,Arial,sans-serif" font-size="18.9" font-weight="800" fill="#14121F" style="font-variant-numeric:tabular-nums;fill:#14121F">6</text></g><g class="pc"><path class="sh" d="M-21.8 -10.9L-213.7 -90.4A232.0 232.0 0 0 1 -90.4 -213.7L-10.9 -21.8A24.4 24.4 0 0 0 -21.8 -10.9Z" fill="#5CE1F2"/><text class="nm" x="-104.7" y="-115.0" text-anchor="middle" font-family="DM Sans,Arial,sans-serif" font-size="14.0" font-weight="700" fill="#14121F" style="fill:#14121F">Visionizer</text><text class="rkn" x="-104.7" y="-89.6" text-anchor="middle" font-family="DM Sans,Arial,sans-serif" font-size="18.9" font-weight="800" fill="#14121F" style="font-variant-numeric:tabular-nums;fill:#14121F">5</text></g></g><circle r="21.0" fill="#FBFAFF"/><use href="#np" fill="#A970FF" transform="rotate(0) scale(.265)"/><use href="#np" fill="#D7263D" transform="rotate(45) scale(.265)"/><use href="#np" fill="#8A1C2B" transform="rotate(90) scale(.265)"/><use href="#np" fill="#A07F0C" transform="rotate(135) scale(.265)"/><use href="#np" fill="#0B6B3A" transform="rotate(180) scale(.265)"/><use href="#np" fill="#52C28A" transform="rotate(225) scale(.265)"/><use href="#np" fill="#0E8A9B" transform="rotate(270) scale(.265)"/><use href="#np" fill="#5CE1F2" transform="rotate(315) scale(.265)"/></svg>